<svg width="132" height="128" viewBox="0 0 132 128" fill="none" xmlns="http://www.w3.org/2000/svg">
<g clip-path="url(#clip0_25_10)">
<path d="M23.2145 0H107.866C120.699 0 131.076 10.3767 131.076 23.2105V104.585C131.076 117.419 120.699 127.795 107.866 127.795H23.2145C10.3807 127.795 0.00402832 117.419 0.00402832 104.585V23.2105C0.00402832 10.3767 10.3807 0 23.2145 0Z" fill="#00005B"/>
<path d="M31.1335 89.6205V33.4234C31.1335 33.0409 31.2974 32.8228 31.6798 32.8228L32.4724 32.8213L33.0858 32.8161L33.5184 32.808L33.9792 32.7962L34.4743 32.7788L34.738 32.768C35.2295 32.7475 35.7287 32.7347 36.2382 32.724L37.8023 32.6912C37.98 32.6871 38.1597 32.6825 38.3405 32.6769L38.8883 32.659C39.3798 32.6405 39.8836 32.6282 40.3997 32.618L41.9833 32.5898L43.0795 32.5658L43.6402 32.5494C44.7686 32.5136 45.873 32.5013 46.9692 32.4972L48.6096 32.4951C53.0881 32.4951 56.8016 33.0409 59.8603 34.1878C62.6019 35.1189 65.1017 36.6487 67.1783 38.6663C68.9382 40.4318 70.2979 42.5551 71.1653 44.8922C71.9845 47.1859 72.4212 49.5345 72.4212 51.9921C72.4212 56.6887 71.3291 60.566 69.1444 63.6247C66.9597 66.6829 63.9015 68.9767 60.3518 70.2874C56.7617 71.6073 52.8147 72.1101 48.5103 72.1424H46.9492L46.3415 72.1362L45.9518 72.127L45.7225 72.1173L45.5166 72.105L45.3328 72.0896C45.215 72.0781 45.0968 72.0692 44.9785 72.063L44.7123 72.0512L44.4205 72.0435L43.9335 72.0369L42.9848 72.0348V89.5657C43.0391 89.9482 42.7662 90.2759 42.3837 90.3306H31.7889C31.3522 90.3306 31.1335 90.112 31.1335 89.6205V89.6205ZM43.0391 43.3628V61.7129L43.6811 61.759C44.1762 61.7969 44.6725 61.818 45.169 61.8225H48.0638C50.1938 61.8225 52.3237 61.4948 54.344 60.8394C56.092 60.3479 57.6208 59.3101 58.8225 57.9446C59.9694 56.5796 60.5157 54.7226 60.5157 52.3198C60.567 50.613 60.1312 48.9269 59.2592 47.4588C58.3699 46.0984 57.1288 45.0386 55.6333 44.4237L55.4366 44.3459C53.4158 43.5267 51.2311 43.199 48.9921 43.2538L47.7295 43.2553L47.1361 43.2589L46.5693 43.2666L46.0312 43.2789C45.7691 43.286 45.5177 43.2958 45.2786 43.3086C45.1612 43.3027 45.0438 43.2979 44.9263 43.2942L44.5991 43.2871C44.5479 43.2865 44.4967 43.2861 44.4455 43.286L44.1558 43.2876L43.8926 43.2947L43.7707 43.2999L43.547 43.3127L43.3504 43.328L43.2618 43.3362L43.1067 43.3541L43.0391 43.3628V43.3628ZM80.0669 46.5306H89.6244C90.14 46.5306 90.5588 46.8716 90.7416 47.3237L90.7713 47.4046C90.9351 47.8413 91.0442 48.278 91.099 48.7695C91.208 49.3159 91.3176 49.9164 91.3719 50.4627L91.418 50.9911C91.4538 51.4422 91.4815 51.9219 91.4815 52.4288C93.0454 50.6027 94.9211 49.0687 97.0213 47.8981L97.3249 47.7322C99.8373 46.3119 102.732 45.6023 105.626 45.6023C106.008 45.5475 106.336 45.8204 106.391 46.2029V57.0711C106.391 57.5079 106.117 57.6717 105.517 57.6717C103.682 57.6205 101.8 57.7603 100.003 58.134L99.6187 58.218C98.035 58.5457 96.5057 59.0372 95.0311 59.6926C93.9933 60.1841 93.0103 60.8394 92.2459 61.7129V89.5657C92.2459 90.112 92.0272 90.3306 91.5357 90.3306H80.7771C80.3403 90.3849 79.9579 90.112 79.9031 89.6753V59.201C79.9031 57.8903 79.9031 56.5248 79.8488 55.105L79.816 54.0401L79.772 51.9102C79.7633 51.5548 79.7531 51.2 79.7392 50.8452C79.7392 49.5888 79.6302 48.3876 79.5211 47.1312C79.4663 46.8583 79.6302 46.5854 79.9031 46.5306C79.9031 46.484 79.9835 46.4773 80.0408 46.5101L80.0669 46.5306V46.5306Z" fill="#9999FF"/>
</g>
<defs>
<clipPath id="clip0_25_10">
<rect width="131.08" height="128" fill="white"/>
</clipPath>
</defs>
</svg>
