<svg width="132" height="128" viewBox="0 0 132 128" fill="none" xmlns="http://www.w3.org/2000/svg">
<g clip-path="url(#clip0_25_13)">
<path d="M109.316 0H21.7639C9.74619 0 0.00390625 9.74228 0.00390625 21.76V106.035C0.00390625 118.053 9.74619 127.795 21.7639 127.795H109.316C121.334 127.795 131.076 118.053 131.076 106.035V21.76C131.076 9.74228 121.334 0 109.316 0Z" fill="#001E36"/>
<path d="M29.5178 89.6179V33.4321C29.5178 33.0225 29.6939 32.8167 30.0457 32.8167L30.6022 32.8151L31.5535 32.8049L32.8755 32.7788L37.3043 32.6851L42.0531 32.597C43.7233 32.5683 45.3791 32.553 47.0205 32.553C51.4749 32.553 55.2264 33.11 58.2753 34.2236C61.0256 35.1539 63.5338 36.6858 65.6174 38.7077C67.3837 40.4605 68.7487 42.5755 69.6182 44.907C70.4407 47.1758 70.8575 49.5716 70.8495 51.9849C70.8495 56.6753 69.7646 60.544 67.5958 63.5914C65.4744 66.5645 62.5156 68.8382 59.0966 70.1225L58.8032 70.23C55.233 71.5617 51.2794 72.043 46.9432 72.0732L46.2694 72.0753L45.2695 72.0702L44.7652 72.063L44.203 72.0497L43.8641 72.0364L43.6582 72.0256L43.1519 72.0072L42.5329 71.9944L41.601 71.9877L41.3937 71.9872V89.5299C41.4091 89.6374 41.3992 89.7471 41.3649 89.8501C41.3306 89.9532 41.2727 90.0468 41.1959 90.1237C41.1191 90.2005 41.0254 90.2583 40.9224 90.2927C40.8193 90.327 40.7096 90.3368 40.6021 90.3214H30.1338C29.7226 90.3214 29.5178 90.088 29.5178 89.6179V89.6179ZM41.3942 43.368V61.6935C42.0959 61.7501 42.7996 61.7795 43.5036 61.7815H46.4056C48.4064 61.7748 50.3955 61.4769 52.3105 60.8973L52.6925 60.778C54.4346 60.2605 55.9913 59.2532 57.1771 57.876C58.2789 56.5765 58.8498 54.7861 58.8892 52.5041L58.8918 52.2486C58.9379 50.5477 58.4955 48.8694 57.6164 47.4128C56.6925 46.004 55.357 44.914 53.7917 44.2911C51.7478 43.4967 49.5646 43.123 47.3728 43.1923L46.2577 43.1954L45.5542 43.2016L44.8829 43.2103L43.9357 43.2287L43.2445 43.2481L42.8856 43.2615L42.4059 43.284L41.9973 43.3091L41.7644 43.3275L41.5631 43.347L41.4746 43.3572L41.3942 43.368V43.368ZM104.846 58.3614C103.312 57.5731 101.686 56.9811 100.004 56.5991L99.6147 56.5151C97.7646 56.0905 95.8759 55.8567 93.9781 55.8172L93.504 55.8116C92.3915 55.7815 91.2805 55.9148 90.2067 56.2074C89.5231 56.3594 88.9154 56.7487 88.4915 57.3061C88.205 57.7522 88.0525 58.271 88.0522 58.8012C88.0683 59.3153 88.2537 59.8097 88.5796 60.2076C89.0462 60.7534 89.6073 61.2107 90.2359 61.5578L90.4264 61.6586C91.68 62.3337 92.9717 62.9354 94.295 63.4609C97.246 64.4488 100.066 65.7922 102.692 67.4617C104.481 68.5909 105.962 70.1471 107.001 71.9903C107.874 73.7353 108.312 75.6661 108.276 77.6172C108.328 80.194 107.592 82.7253 106.165 84.8717C104.638 87.0502 102.517 88.7439 100.054 89.7511C97.4751 90.8846 94.3078 91.4698 90.5528 91.5082L90.1627 91.5103C87.8349 91.5339 85.5103 91.3301 83.222 90.902L82.7325 90.8068C80.8059 90.4535 78.9305 89.8627 77.1492 89.0481C76.9702 88.9557 76.8189 88.8174 76.7108 88.6474C76.6026 88.4774 76.5416 88.2817 76.5338 88.0804V78.4968C76.5232 78.4038 76.5381 78.3096 76.5769 78.2244C76.6157 78.1392 76.6769 78.0661 76.7539 78.0129C76.8294 77.9703 76.9161 77.9516 77.0025 77.9595C77.0888 77.9674 77.1707 78.0014 77.2372 78.057C79.3408 79.2974 81.625 80.2022 84.0074 80.7388C86.1074 81.2653 88.2616 81.5457 90.4264 81.5744C92.4774 81.5744 93.9868 81.3102 94.9545 80.7829C95.3915 80.5829 95.7611 80.2605 96.0186 79.8547C96.2761 79.449 96.4105 78.9773 96.4055 78.4968C96.4055 77.736 95.9657 77.0028 95.0866 76.2988C94.718 76.0039 94.1891 75.6828 93.5009 75.3362L93.1717 75.1744L92.8205 75.009L92.6362 74.9251L92.2501 74.7541C92.1831 74.7248 92.1161 74.6958 92.0489 74.667L91.6291 74.4909L91.4104 74.4013L90.9568 74.2195L90.7213 74.1274L90.2333 73.9395L89.7229 73.7485C86.9619 72.7876 84.3441 71.4565 81.941 69.7918C80.2223 68.5964 78.8072 67.0156 77.8086 65.1756C76.9439 63.4429 76.5068 61.5284 76.5338 59.5922C76.5289 57.2658 77.1679 54.9833 78.38 52.9977C79.7624 50.8114 81.7469 49.0706 84.0955 47.9862C86.6744 46.6975 89.898 46.0524 93.7672 46.0513C96.0333 46.0332 98.2973 46.1949 100.538 46.5352C102.16 46.7409 103.746 47.17 105.251 47.8101C105.494 47.8797 105.689 48.0584 105.779 48.2939C105.839 48.5084 105.868 48.7301 105.867 48.9534V57.834C105.88 58.0439 105.779 58.2451 105.603 58.3614C105.486 58.4198 105.356 58.4502 105.225 58.4502C105.093 58.4502 104.964 58.4198 104.846 58.3614V58.3614Z" fill="#31A8FF"/>
</g>
<defs>
<clipPath id="clip0_25_13">
<rect width="131.08" height="128" fill="white"/>
</clipPath>
</defs>
</svg>
