<svg width="64" height="47" viewBox="0 0 64 47" fill="none" xmlns="http://www.w3.org/2000/svg">
<g clip-path="url(#clip0_1_1133)">
<path d="M62.6792 17.6243C61.2379 16.6243 57.9352 16.2493 55.3532 16.7493C55.0532 14.2493 53.6719 12.062 51.2699 10.1245L49.8889 9.1245L48.9279 10.562C47.7272 12.437 47.1267 15.062 47.3067 17.562C47.3667 18.4368 47.6669 19.9993 48.5677 21.3743C47.7272 21.8743 45.9857 22.4993 43.7039 22.4993H0.288926L0.168926 22.9993C-0.251574 25.499 -0.251574 33.3113 4.67243 39.311C8.39543 43.8733 13.9199 46.1857 21.1857 46.1857C36.9182 46.1857 48.5677 38.6233 54.0322 24.9365C56.1939 24.999 60.8177 24.9365 63.1597 20.249C63.2197 20.124 63.3397 19.874 63.7599 18.9368L64.0002 18.4368L62.6792 17.6243ZM34.9967 0H28.3917V6.24975H34.9967V0ZM34.9967 7.49975H28.3917V13.7495H34.9967V7.49975ZM27.1904 7.49975H20.5854V13.7495H27.1904V7.49975ZM19.3842 7.49975H12.7789V13.7495H19.3842V7.49975ZM11.5779 14.9995H4.97268V21.2493H11.5777L11.5779 14.9995ZM19.3842 14.9995H12.7789V21.2493H19.3842V14.9995ZM27.1904 14.9995H20.5854V21.2493H27.1904V14.9995ZM34.9969 14.9995H28.3914V21.2493H34.9969V14.9995ZM42.8032 14.9995H36.1977V21.2493H42.8032V14.9995Z" fill="#2396ED"/>
</g>
<defs>
<clipPath id="clip0_1_1133">
<rect width="64" height="46.1857" fill="white"/>
</clipPath>
</defs>
</svg>
