<svg width="128" height="128" viewBox="0 0 128 128" fill="none" xmlns="http://www.w3.org/2000/svg">
<g clip-path="url(#clip0_24_2)">
<path d="M96 117.333H32C29.1711 117.333 26.458 116.21 24.4576 114.209C22.4572 112.209 21.3334 109.496 21.3334 106.667V21.3333C21.3334 18.5044 22.4572 15.7913 24.4576 13.7909C26.458 11.7905 29.1711 10.6667 32 10.6667H69.3334C69.3812 10.6604 69.4296 10.6604 69.4774 10.6667H69.5094C69.5597 10.6824 69.6116 10.6931 69.664 10.6987C70.1334 10.7307 70.5974 10.8213 71.0454 10.9707H71.2694C71.3678 11.0396 71.4605 11.1163 71.5467 11.2C72.1277 11.4584 72.6571 11.8198 73.1094 12.2667L105.109 44.2667C105.556 44.7189 105.918 45.2483 106.176 45.8293C106.222 45.9447 106.263 46.0621 106.299 46.1813L106.352 46.3307C106.501 46.7733 106.587 47.2373 106.613 47.7067C106.618 47.7598 106.631 47.8119 106.651 47.8613V47.8933C106.659 47.9283 106.665 47.964 106.667 48V106.667C106.667 109.496 105.543 112.209 103.543 114.209C101.542 116.21 98.829 117.333 96 117.333ZM76.928 74.6667V101.333H81.9414V90.4533H89.728V85.984H81.9414V79.152H90.6667V74.6667H76.928ZM57.1947 74.6667V101.333H63.6267C64.9589 101.399 66.2889 101.165 67.5184 100.648C68.748 100.131 69.8458 99.3447 70.7307 98.3467C72.5702 95.9995 73.4916 93.0627 73.3227 90.0854V85.7653C73.4468 82.8193 72.4995 79.9281 70.656 77.6267C68.9227 75.6534 66.3894 74.5654 63.76 74.6667H57.1947V74.6667ZM37.3334 74.6667V101.333H42.3467V91.952H45.6854C47.9147 92.0747 50.0907 91.248 51.68 89.68C53.1941 87.9856 53.9797 85.7629 53.8667 83.4933C53.9657 81.1692 53.1806 78.8939 51.6694 77.1254C50.9311 76.3067 50.0208 75.6616 49.0037 75.2365C47.9866 74.8114 46.8879 74.6168 45.7867 74.6667H37.3334ZM69.3334 21.3333V48H96L69.3334 21.3333ZM63.712 96.864H62.208V79.152H64.032C64.6695 79.1144 65.3061 79.2373 65.8838 79.5094C66.4615 79.7814 66.9617 80.194 67.3387 80.7094C68.1227 82.3254 68.4587 84.1227 68.3094 85.9147V90.5494C68.4267 92.256 68.0587 93.9627 67.2427 95.4614C66.8121 95.964 66.2657 96.3543 65.6506 96.5987C65.0355 96.8431 64.3702 96.9341 63.712 96.864V96.864ZM45.7867 87.4667H42.3414V79.152H45.8347C46.2637 79.1567 46.6845 79.2702 47.0577 79.4819C47.4308 79.6937 47.7441 79.9967 47.968 80.3627C48.544 81.3173 48.8214 82.416 48.768 83.5307C48.8349 84.5679 48.5595 85.5984 47.984 86.464C47.7225 86.7923 47.3872 87.0542 47.0054 87.2284C46.6236 87.4026 46.206 87.4843 45.7867 87.4667Z" fill="#F24E1E"/>
<path d="M66 108.6C66.5304 108.6 67.0391 108.811 67.4142 109.186C67.7893 109.561 68 110.07 68 110.6V120.6C68 121.661 68.4214 122.678 69.1716 123.428C69.9217 124.179 70.9391 124.6 72 124.6H120C121.061 124.6 122.078 124.179 122.828 123.428C123.579 122.678 124 121.661 124 120.6V110.6C124 110.07 124.211 109.561 124.586 109.186C124.961 108.811 125.47 108.6 126 108.6C126.53 108.6 127.039 108.811 127.414 109.186C127.789 109.561 128 110.07 128 110.6V120.6C128 122.722 127.157 124.757 125.657 126.257C124.157 127.757 122.122 128.6 120 128.6H72C69.8783 128.6 67.8434 127.757 66.3431 126.257C64.8429 124.757 64 122.722 64 120.6V110.6C64 110.07 64.2107 109.561 64.5858 109.186C64.9609 108.811 65.4696 108.6 66 108.6V108.6Z" fill="black"/>
<path d="M94.584 116.416C94.7697 116.602 94.9904 116.75 95.2334 116.851C95.4764 116.952 95.7369 117.004 96 117.004C96.263 117.004 96.5235 116.952 96.7665 116.851C97.0095 116.75 97.2302 116.602 97.416 116.416L109.416 104.416C109.792 104.04 110.002 103.531 110.002 103C110.002 102.469 109.792 101.96 109.416 101.584C109.04 101.208 108.531 100.997 108 100.997C107.469 100.997 106.96 101.208 106.584 101.584L98 110.172V75C98 74.4696 97.7893 73.9609 97.4142 73.5858C97.0391 73.2107 96.5304 73 96 73C95.4695 73 94.9608 73.2107 94.5858 73.5858C94.2107 73.9609 94 74.4696 94 75V110.172L85.416 101.584C85.0404 101.208 84.5311 100.997 84 100.997C83.4689 100.997 82.9595 101.208 82.584 101.584C82.2084 101.96 81.9974 102.469 81.9974 103C81.9974 103.531 82.2084 104.04 82.584 104.416L94.584 116.416V116.416Z" fill="black"/>
</g>
<defs>
<clipPath id="clip0_24_2">
<rect width="128" height="128" fill="white"/>
</clipPath>
</defs>
</svg>
