<svg width="86" height="128" viewBox="0 0 86 128" fill="none" xmlns="http://www.w3.org/2000/svg">
<g clip-path="url(#clip0_25_4)">
<path d="M21.3366 128C33.1126 128 42.67 118.443 42.67 106.667V85.3333H21.3366C9.56063 85.3333 0.0032959 94.8906 0.0032959 106.667C0.0032959 118.443 9.56063 128 21.3366 128Z" fill="#0ACF83"/>
<path d="M0.0032959 64C0.0032959 52.224 9.56063 42.6667 21.3366 42.6667H42.67V85.3334H21.3366C9.56063 85.3334 0.0032959 75.776 0.0032959 64Z" fill="#A259FF"/>
<path d="M0.0032959 21.3333C0.0032959 9.55733 9.56063 0 21.3366 0H42.67V42.6667H21.3366C9.56063 42.6667 0.0032959 33.1093 0.0032959 21.3333Z" fill="#F24E1E"/>
<path d="M42.67 0H64.0034C75.7794 0 85.3367 9.55733 85.3367 21.3333C85.3367 33.1093 75.7794 42.6667 64.0034 42.6667H42.67V0Z" fill="#FF7262"/>
<path d="M85.3367 64C85.3367 75.776 75.7794 85.3334 64.0034 85.3334C52.2274 85.3334 42.67 75.776 42.67 64C42.67 52.224 52.2274 42.6667 64.0034 42.6667C75.7794 42.6667 85.3367 52.224 85.3367 64Z" fill="#1ABCFE"/>
</g>
<defs>
<clipPath id="clip0_25_4">
<rect width="85.34" height="128" fill="white"/>
</clipPath>
</defs>
</svg>
