<svg width="64" height="64" viewBox="0 0 64 64" fill="none" xmlns="http://www.w3.org/2000/svg">
<path fill-rule="evenodd" clip-rule="evenodd" d="M32 9.216C19.0976 9.216 8.64001 19.6736 8.64001 32.576C8.64001 42.8928 15.3344 51.648 24.6144 54.7456C25.7792 54.9632 26.2144 54.2336 26.2144 53.6192C26.2144 53.056 26.1888 51.2256 26.1888 49.2672C19.6864 50.6752 18.3168 46.5152 18.3168 46.5152C17.2544 43.8144 15.7184 43.0976 15.7184 43.0976C13.5936 41.6512 15.872 41.6768 15.872 41.6768C18.2144 41.8432 19.456 44.0832 19.456 44.0832C21.5424 47.6544 24.9216 46.6176 26.2528 46.0288C26.4576 44.5184 27.072 43.4944 27.7376 42.9056C22.5536 42.3168 17.088 40.3072 17.088 31.36C17.088 28.8128 17.9968 26.7264 19.4944 25.088C19.2512 24.4992 18.4576 22.1184 19.7248 18.9056C19.7248 18.9056 21.6832 18.2784 26.1504 21.2992C28.0192 20.7872 30.016 20.5184 32 20.5184C33.984 20.5312 35.9808 20.7872 37.8496 21.2992C42.304 18.2784 44.2624 18.9056 44.2624 18.9056C45.5296 22.1184 44.736 24.4992 44.4928 25.088C45.9904 26.7264 46.8992 28.8128 46.8992 31.36C46.8992 40.3328 41.4336 42.304 36.2368 42.88C37.0688 43.6096 37.824 45.0304 37.824 47.2064C37.824 50.3296 37.7984 52.8512 37.7984 53.6192C37.7984 54.2464 38.2208 54.9632 39.3984 54.7456C48.6784 51.648 55.36 42.9056 55.36 32.576C55.36 19.6736 44.9024 9.216 32 9.216Z" fill="#181616"/>
<path d="M17.4848 42.752C17.4336 42.8672 17.2544 42.9056 17.088 42.8288C16.9216 42.752 16.8192 42.5984 16.8832 42.4832C16.9344 42.368 17.1136 42.3296 17.28 42.4064C17.4464 42.4832 17.5488 42.6368 17.4848 42.752Z" fill="#181616"/>
<path d="M18.432 43.8144C18.3168 43.9168 18.0992 43.8656 17.9584 43.712C17.8048 43.5456 17.7792 43.328 17.8944 43.2256C18.0096 43.1232 18.2144 43.1744 18.368 43.328C18.5216 43.4944 18.5472 43.712 18.432 43.8144Z" fill="#181616"/>
<path d="M19.3536 45.1584C19.2128 45.2608 18.9824 45.1712 18.8288 44.9536C18.688 44.7488 18.688 44.4928 18.8288 44.3904C18.9696 44.288 19.2 44.3776 19.3536 44.5824C19.5072 44.8 19.5072 45.056 19.3536 45.1584Z" fill="#181616"/>
<path d="M20.6208 46.4512C20.4928 46.592 20.224 46.5536 20.0192 46.3616C19.8144 46.1696 19.7632 45.9008 19.8912 45.76C20.0192 45.6192 20.3008 45.6576 20.4928 45.8496C20.6976 46.0544 20.7488 46.3232 20.6208 46.4512Z" fill="#181616"/>
<path d="M22.3616 47.2064C22.3104 47.3856 22.0416 47.4752 21.7728 47.3984C21.504 47.3216 21.3376 47.104 21.3888 46.9248C21.44 46.7456 21.7088 46.656 21.9776 46.7328C22.2336 46.8096 22.4128 47.0272 22.3616 47.2064Z" fill="#181616"/>
<path d="M24.2688 47.3472C24.2816 47.5392 24.0512 47.7056 23.7696 47.7056C23.488 47.7184 23.2704 47.552 23.2576 47.36C23.2576 47.168 23.4752 47.0016 23.7568 47.0016C24.0384 47.0016 24.2688 47.1552 24.2688 47.3472Z" fill="#181616"/>
<path d="M26.048 47.0528C26.0864 47.2448 25.8944 47.4368 25.6128 47.488C25.344 47.5392 25.088 47.424 25.0624 47.232C25.024 47.04 25.2288 46.848 25.4976 46.7968C25.7664 46.7456 26.0096 46.8608 26.048 47.0528Z" fill="#181616"/>
</svg>
