<svg width="48" height="48" viewBox="0 0 48 48" fill="none" xmlns="http://www.w3.org/2000/svg">
<g clip-path="url(#clip0_1_1113)">
<path d="M44.445 0.00152588H3.543C1.59 0.00152588 0 1.55103 0 3.45903V44.535C0 46.4475 1.59 48 3.543 48H44.448C46.4055 48 48 46.4475 48 44.535V3.45903C48 1.55103 46.4055 0.00152588 44.445 0.00152588Z" fill="#0177B5"/>
<path d="M7.11751 17.9955H14.25V40.9005H7.11751V17.9955ZM10.6785 6.59552C12.954 6.59552 14.8035 8.44502 14.8035 10.7205C14.8035 12.996 12.954 14.85 10.68 14.85C9.58539 14.8476 8.53626 14.4119 7.76211 13.638C6.98795 12.8641 6.55178 11.8151 6.54901 10.7205C6.54901 10.1784 6.65586 9.64168 6.86344 9.14091C7.07102 8.64015 7.37527 8.18522 7.75879 7.80212C8.1423 7.41901 8.59757 7.11526 9.09856 6.90823C9.59955 6.70119 10.1364 6.59493 10.6785 6.59552ZM18.7035 17.9955H25.5315V21.126H25.626C26.577 19.326 28.899 17.427 32.376 17.427C39.585 17.427 40.9155 22.1715 40.9155 28.338V40.902H33.801V29.76C33.801 27.105 33.753 23.685 30.102 23.685C26.397 23.685 25.827 26.58 25.827 29.565V40.896H18.714V17.991L18.7035 17.9955Z" fill="white"/>
</g>
<defs>
<clipPath id="clip0_1_1113">
<rect width="48" height="48" fill="white"/>
</clipPath>
</defs>
</svg>
