<svg width="128" height="128" viewBox="0 0 128 128" fill="none" xmlns="http://www.w3.org/2000/svg">
<g clip-path="url(#clip0_25_2)">
<path fill-rule="evenodd" clip-rule="evenodd" d="M112 36V112C112 116.243 110.314 120.313 107.314 123.314C104.313 126.314 100.243 128 96 128V120C98.1217 120 100.157 119.157 101.657 117.657C103.157 116.157 104 114.122 104 112V36H88C84.8174 36 81.7652 34.7357 79.5147 32.4853C77.2643 30.2348 76 27.1826 76 24V8H32C29.8783 8 27.8434 8.84285 26.3431 10.3431C24.8429 11.8434 24 13.8783 24 16V88H16V16C16 11.7565 17.6857 7.68687 20.6863 4.68629C23.6869 1.68571 27.7565 0 32 0L76 0L112 36ZM0 118.728C0.0453055 119.989 0.354169 121.226 0.906695 122.36C1.45922 123.494 2.24316 124.499 3.208 125.312C4.248 126.176 5.512 126.848 7.032 127.328C8.552 127.808 10.32 128.056 12.352 128.056C15.056 128.056 17.344 127.632 19.216 126.792C21.112 125.944 22.544 124.776 23.536 123.272C24.5449 121.71 25.0657 119.883 25.032 118.024C25.032 116.232 24.672 114.744 23.952 113.544C23.2201 112.345 22.1854 111.36 20.952 110.688C19.5375 109.906 18.014 109.34 16.432 109.008L11.464 107.856C10.2901 107.642 9.18138 107.16 8.224 106.448C7.86 106.166 7.56697 105.803 7.36833 105.388C7.16969 104.972 7.07095 104.516 7.08 104.056C7.08 102.808 7.568 101.784 8.552 100.984C9.552 100.176 10.92 99.768 12.656 99.768C13.8 99.768 14.784 99.944 15.616 100.312C16.3789 100.625 17.0523 101.123 17.576 101.76C18.0684 102.354 18.399 103.065 18.536 103.824H24.536C24.4385 102.196 23.887 100.627 22.944 99.296C21.9329 97.8601 20.5502 96.7262 18.944 96.016C16.9795 95.1542 14.8483 94.7389 12.704 94.8C10.36 94.8 8.288 95.2 6.496 96C4.696 96.792 3.296 97.92 2.272 99.368C1.256 100.824 0.752 102.528 0.752 104.48C0.752 106.088 1.072 107.488 1.736 108.672C2.392 109.864 3.328 110.832 4.544 111.608C5.768 112.368 7.2 112.944 8.864 113.312L13.808 114.464C15.464 114.856 16.688 115.368 17.504 116.008C17.903 116.31 18.2228 116.705 18.4359 117.157C18.6491 117.61 18.7493 118.108 18.728 118.608C18.728 119.488 18.496 120.264 18.048 120.928C17.5322 121.635 16.82 122.175 16 122.48C15.112 122.856 14.008 123.04 12.696 123.04C11.76 123.04 10.904 122.936 10.136 122.72C9.42862 122.524 8.7583 122.214 8.152 121.8C7.61974 121.455 7.16402 121.004 6.81311 120.476C6.4622 119.947 6.22356 119.352 6.112 118.728H0V118.728ZM55.024 130.64L50.968 124.728C52.376 123.432 53.448 121.832 54.176 119.928C54.912 118.016 55.28 115.872 55.28 113.48V109.472C55.28 106.504 54.72 103.928 53.616 101.736C52.5823 99.6119 50.9427 97.8414 48.904 96.648C46.856 95.448 44.416 94.848 41.568 94.848C38.76 94.848 36.32 95.448 34.256 96.648C32.208 97.84 30.632 99.528 29.52 101.736C28.3765 104.151 27.8149 106.801 27.88 109.472V113.472C27.88 116.432 28.432 119 29.52 121.192C30.632 123.376 32.208 125.072 34.256 126.28C36.4929 127.51 39.0163 128.123 41.568 128.056C43.2018 128.064 44.825 127.793 46.368 127.256L48.72 130.632H55.024V130.64ZM34.096 113.6V109.424C34.096 107.456 34.4 105.776 35.008 104.384C35.5508 103.095 36.4535 101.99 37.608 101.2C38.7898 100.448 40.1679 100.064 41.568 100.096C43.104 100.096 44.424 100.464 45.528 101.2C46.6921 101.979 47.5974 103.088 48.128 104.384C48.744 105.776 49.048 107.456 49.048 109.424V113.6C49.048 114.912 48.904 116.096 48.624 117.16C48.344 118.2 47.928 119.112 47.384 119.88L46.536 118.76L45.696 117.584H39.832L43.44 122.784C42.8028 123.043 42.1198 123.171 41.432 123.16C40.0453 123.164 38.6889 122.755 37.536 121.984C36.3909 121.174 35.5024 120.052 34.976 118.752C34.3463 117.109 34.0473 115.359 34.096 113.6V113.6ZM65.984 122.056H79.552V127.448H59.656V95.456H65.976V122.056H65.984Z" fill="#00758F"/>
</g>
<defs>
<clipPath id="clip0_25_2">
<rect width="128" height="128" fill="white"/>
</clipPath>
</defs>
</svg>
