<svg width="64" height="64" viewBox="0 0 64 64" fill="none" xmlns="http://www.w3.org/2000/svg">
<g clip-path="url(#clip0_1_7)">
<path d="M38 54H54C55.977 54 57.657 53.554 59.052 52.777L38 40.219V54ZM63.66 46.21C63.888 45.193 64.004 44.116 64.004 42.999V37.999H49.894L63.656 46.21M0.349997 17.759C0.113 18.8229 -0.00439445 19.91 -3.31183e-06 21V26H14.164L0.349997 17.759ZM26 10H10C8.037 10 6.368 10.44 4.979 11.206L26 23.746V10ZM5.043 52.826C6.419 53.57 8.066 54 10 54H26V40.324L5.043 52.826ZM-3.31183e-06 38V43C-3.31183e-06 44.151 0.121997 45.26 0.362997 46.303L14.282 38H-3.31183e-06ZM59.115 11.255C57.709 10.457 56.006 10 54 10H38V23.851L59.115 11.255V11.255ZM64 26V21C64 19.906 63.887 18.851 63.668 17.853L50.012 26H64Z" fill="#2E3192"/>
<path d="M50.012 26L63.668 17.853C63.042 14.989 61.518 12.618 59.115 11.255L38 23.851V10H36V28H64V26H50.012ZM0 36V38H14.282L0.363 46.303C1.024 49.158 2.594 51.502 5.043 52.826L26 40.324V54H28V36H0ZM64 36H36V54H38V40.219L59.052 52.778C61.473 51.43 63.016 49.072 63.656 46.212L49.894 38H64V36ZM26 10V23.746L4.979 11.206C2.549 12.546 0.996 14.9 0.349 17.759L14.164 26H0V28H28V10H26Z" fill="#E6E7E8"/>
<path d="M36 28V10H28V28H0V36H28V54H36V36H64V28H36Z" fill="#BE1E2D"/>
<path d="M21.938 26L1.88801 14.031C1.45701 14.671 1.11101 15.375 0.825012 16.125L17.372 26H21.935M63.09 48.09L46.277 38H41.621L61.934 50.219C62.4051 49.5608 62.7933 48.8471 63.09 48.094M60.719 12.391L37.969 26L42.588 26.003L62.219 14.25C61.781 13.453 61.319 12.939 60.719 12.391M1.81301 49.875C2.26284 50.5601 2.80418 51.1805 3.42201 51.719L26.063 38H21.5L1.81301 49.875Z" fill="#BE1E2D"/>
</g>
<defs>
<clipPath id="clip0_1_7">
<rect width="64" height="64" fill="white"/>
</clipPath>
</defs>
</svg>
